<svg xmlns="http://www.w3.org/2000/svg" width="13" height="16" viewBox="19 21 13 16"><path d="M30.375 25h-2.6c-.325 0-.487-.32-.325-.56.244-.48.488-1.04.488-1.44 0-1.12-.894-2-2.031-2s-2.031.88-2.031 2c0 .4.244.96.488 1.44.162.24-.081.56-.325.56h-3.413c-.894 0-1.625.72-1.625 1.6v1.92c0 .48.488.88.975.72.406-.16.813-.24 1.056-.24 1.137 0 2.031.88 2.031 2s-.894 2-2.031 2c-.244 0-.65-.08-1.056-.24-.488-.08-.975.24-.975.72v1.92c0 .88.731 1.6 1.625 1.6h9.75c.894 0 1.625-.72 1.625-1.6v-8.8c0-.88-.731-1.6-1.625-1.6z" fill="#999" fill-rule="evenodd"/></svg>