<svg xmlns="http://www.w3.org/2000/svg" xmlns:xlink="http://www.w3.org/1999/xlink" width="36" height="36"><defs><path d="M26 19l-7 6v-6h-2a3 3 0 0 1-3-3V6a3 3 0 0 1 3-3h16a3 3 0 0 1 3 3v10a3 3 0 0 1-3 3h-7z" id="A"/><filter x="-29.5%" y="-11.4%" width="159.1%" height="163.6%" id="B"><feMorphology radius="2" in="SourceAlpha"/><feOffset dy="5"/><feGaussianBlur stdDeviation="2"/><feColorMatrix values="0 0 0 0 0 0 0 0 0 0 0 0 0 0 0 0 0 0 0.299054574 0"/></filter><path d="M8.615 32.25H2.846C1.827 32.25 1 31.411 1 30.375v-7.5C1 21.839 1.827 21 2.846 21h11.308c1.02 0 1.846.839 1.846 1.875v7.5c0 1.036-.827 1.875-1.846 1.875h-1.231V36l-4.308-3.75z" id="C"/><filter x="-43.3%" y="-16.7%" width="186.7%" height="186.7%" id="D"><feMorphology radius="1.5" in="SourceAlpha"/><feOffset dy="4"/><feGaussianBlur stdDeviation="2"/><feColorMatrix values="0 0 0 0 0 0 0 0 0 0 0 0 0 0 0 0 0 0 0.253368433 0"/></filter><path id="E" d="M10.207 16.5l.354-.354a.5.5 0 0 1 .707.707l-.354.354.354.354a.5.5 0 0 1-.707.707l-.354-.354-.354.354a.5.5 0 0 1-.707-.707l.354-.354-.354-.354a.5.5 0 0 1 .707-.707l.354.354z"/></defs><g fill="none" fill-rule="evenodd"><g fill-rule="nonzero"><use fill="#000" filter="url(#B)" xlink:href="#A"/><use fill="#fff" xlink:href="#A"/><g fill="#fff"><path d="M7 10h1a1 1 0 1 1 0 2H7v1a1 1 0 1 1-2 0v-1H4a1 1 0 1 1 0-2h1V9a1 1 0 1 1 2 0v1z" fill-opacity=".75"/><use xlink:href="#E" fill-opacity=".499"/></g></g><path d="M22.281 9.163c0-.222.085-.402.256-.541s.385-.208.642-.208.477.069.647.208.256.319.256.541-.084.397-.253.534-.386.205-.65.205-.476-.068-.645-.205-.253-.315-.253-.534zm.551 6.403L22 15.184l.198-.314c.246-.393.373-.784.38-1.173v-1.082h1.344l-.006.966c-.004.357-.107.718-.309 1.082s-.461.665-.777.903zM28 11.056c0 .728-.119 1.428-.358 2.1s-.582 1.267-1.03 1.782-.927.869-1.438 1.062l-.309-.739c.522-.344.933-.876 1.234-1.593s.457-1.544.468-2.477v-.256c0-.963-.15-1.811-.449-2.545s-.717-1.284-1.253-1.651L25.174 6c.5.19.971.534 1.413 1.033a5.42 5.42 0 0 1 1.03 1.743A6.2 6.2 0 0 1 28 10.838v.217z" fill="#f26565"/><g fill-rule="nonzero"><use fill="#000" filter="url(#D)" xlink:href="#C"/><use fill="#ffa300" xlink:href="#C"/></g><path d="M5 28.287a.63.63 0 0 1 .211-.493.76.76 0 0 1 .528-.189c.215 0 .392.063.533.189a.63.63 0 0 1 .211.493c0 .2-.07.362-.209.486a.77.77 0 0 1-.535.187c-.215 0-.391-.062-.53-.187S5 28.487 5 28.287zm0-3.605a.63.63 0 0 1 .211-.493.76.76 0 0 1 .528-.189c.215 0 .392.063.533.189a.63.63 0 0 1 .211.493c0 .2-.07.362-.209.486a.77.77 0 0 1-.535.187c-.215 0-.391-.062-.53-.187S5 24.882 5 24.682zm2.353 1.805c0-.472.094-.893.281-1.263a2.02 2.02 0 0 1 .809-.858c.352-.202.761-.304 1.226-.304.662 0 1.202.197 1.621.59s.652.927.7 1.602l.009.326c0 .731-.21 1.317-.63 1.758S10.386 29 9.679 29s-1.272-.22-1.693-.66-.632-1.039-.632-1.796v-.057zm1.31.092c0 .452.088.797.263 1.037s.426.359.753.359c.317 0 .565-.118.744-.354s.267-.614.267-1.133c0-.443-.089-.786-.267-1.03s-.429-.365-.753-.365-.568.121-.744.363-.263.617-.263 1.125z" fill="#fff"/><g fill-rule="nonzero" fill="#ffa300"><use xlink:href="#E" x="11" y="12" opacity=".499"/><path d="M31 27h1a1 1 0 1 1 0 2h-1v1a1 1 0 1 1-2 0v-1h-1a1 1 0 1 1 0-2h1v-1a1 1 0 1 1 2 0v1z" opacity=".747"/></g></g></svg>