<svg xmlns="http://www.w3.org/2000/svg" width="12" height="11"><path d="M11.771 8.45L7.39.815A1.578 1.578 0 0 0 6 0a1.58 1.58 0 0 0-1.39.815L.23 8.45a1.725 1.725 0 0 0-.013 1.696c.29.539.821.854 1.402.854h8.764c.594 0 1.111-.315 1.402-.854s.29-1.17-.013-1.696zM6 9.213a.693.693 0 0 1-.682-.71c0-.394.303-.71.682-.71s.682.316.682.71-.303.71-.682.71zm.732-5.402l-.24 2.93a.498.498 0 0 1-.53.46.496.496 0 0 1-.442-.46l-.24-2.93a.757.757 0 0 1 .67-.828c.404-.04.757.276.795.697-.013.04-.013.092-.013.131z" fill="#ea0000" fill-rule="evenodd"/></svg>